<svg width="22" height="16" viewBox="0 0 22 16" xmlns="http://www.w3.org/2000/svg">
<path d="M6.56643 7.81503C7.03308 7.81503 7.48924 7.67818 7.87725 7.4218C8.26525 7.16542 8.56766 6.80101 8.74624 6.37466C8.92481 5.94831 8.97154 5.47917 8.8805 5.02657C8.78946 4.57396 8.56475 4.15821 8.23478 3.8319C7.90481 3.50559 7.48441 3.28336 7.02673 3.19333C6.56905 3.1033 6.09465 3.14951 5.66353 3.32611C5.2324 3.50271 4.86392 3.80177 4.60467 4.18547C4.34541 4.56918 4.20703 5.02029 4.20703 5.48176C4.20703 6.10058 4.45561 6.69406 4.89808 7.13163C5.34055 7.5692 5.94068 7.81503 6.56643 7.81503ZM6.56643 4.05494C6.85264 4.05494 7.13241 4.13887 7.37038 4.29612C7.60835 4.45336 7.79383 4.67686 7.90335 4.93835C8.01288 5.19984 8.04154 5.48757 7.9857 5.76517C7.92986 6.04276 7.79205 6.29775 7.58967 6.49789C7.38729 6.69802 7.12945 6.83432 6.84874 6.88954C6.56804 6.94475 6.27708 6.91641 6.01266 6.8081C5.74824 6.69979 5.52224 6.51637 5.36323 6.28103C5.20423 6.0457 5.11936 5.76902 5.11936 5.48599C5.11936 5.29806 5.15678 5.11197 5.22951 4.93835C5.30223 4.76473 5.40882 4.60697 5.5432 4.47408C5.67757 4.3412 5.83709 4.23579 6.01266 4.16388C6.18822 4.09196 6.3764 4.05494 6.56643 4.05494Z"/>
<path d="M6.54588 8.68594C6.06846 8.68285 5.59533 8.77525 5.15493 8.95759C4.71453 9.13993 4.31596 9.40844 3.98317 9.74699C3.29018 10.4572 2.90887 11.4093 2.92221 12.3962C2.92266 12.5157 2.97087 12.6302 3.05632 12.7147C3.14177 12.7992 3.25753 12.8469 3.37837 12.8473H9.71339C9.83423 12.8469 9.95 12.7992 10.0354 12.7147C10.1209 12.6302 10.1691 12.5157 10.1696 12.3962C10.1834 11.4096 9.80267 10.4575 9.1103 9.74699C8.77734 9.40819 8.3785 9.13954 7.93779 8.95719C7.49708 8.77484 7.0236 8.68257 6.54588 8.68594ZM3.867 11.9451C3.94581 11.3547 4.21548 10.8053 4.63581 10.3789C4.8859 10.1287 5.18369 9.93017 5.51192 9.79464C5.84016 9.65911 6.19232 9.58933 6.54802 9.58933C6.90372 9.58933 7.25588 9.65911 7.58411 9.79464C7.91235 9.93017 8.21014 10.1287 8.46023 10.3789C8.8798 10.8058 9.14935 11.3549 9.22904 11.9451H3.867Z"/>
<path d="M19.7081 1.42492e-06H2.29192C1.68504 -0.000671435 1.10272 0.236979 0.672951 0.660719C0.243182 1.08446 0.00113186 1.65961 0 2.25977L0 13.7402C0.00113186 14.3404 0.243182 14.9155 0.672951 15.3393C1.10272 15.763 1.68504 16.0007 2.29192 16H19.7081C20.315 16.0007 20.8973 15.763 21.327 15.3393C21.7568 14.9155 21.9989 14.3404 22 13.7402V2.25977C21.9989 1.65961 21.7568 1.08446 21.327 0.660719C20.8973 0.236979 20.315 -0.000671435 19.7081 1.42492e-06ZM21.0834 13.7402C21.0818 14.1001 20.9363 14.4447 20.6786 14.6987C20.4209 14.9528 20.072 15.0956 19.7081 15.0961H2.29192C1.92803 15.0956 1.57912 14.9528 1.32142 14.6987C1.06372 14.4447 0.918175 14.1001 0.916595 13.7402V2.25977C0.918175 1.89992 1.06372 1.55532 1.32142 1.30127C1.57912 1.04721 1.92803 0.904352 2.29192 0.903909H19.7081C20.072 0.904352 20.4209 1.04721 20.6786 1.30127C20.9363 1.55532 21.0818 1.89992 21.0834 2.25977V13.7402Z"/>
<path d="M18.5945 7.54892H13.2769C13.1558 7.54892 13.0396 7.59649 12.954 7.68117C12.8684 7.76585 12.8203 7.8807 12.8203 8.00045C12.8203 8.1202 12.8684 8.23505 12.954 8.31973C13.0396 8.40441 13.1558 8.45198 13.2769 8.45198H18.5945C18.7156 8.45198 18.8318 8.40441 18.9174 8.31973C19.003 8.23505 19.0511 8.1202 19.0511 8.00045C19.0511 7.8807 19.003 7.76585 18.9174 7.68117C18.8318 7.59649 18.7156 7.54892 18.5945 7.54892Z"/>
<path d="M18.5945 10.4414H13.2769C13.1558 10.4414 13.0396 10.489 12.954 10.5736C12.8684 10.6583 12.8203 10.7731 12.8203 10.8929C12.8203 11.0126 12.8684 11.1275 12.954 11.2122C13.0396 11.2969 13.1558 11.3444 13.2769 11.3444H18.5945C18.7156 11.3444 18.8318 11.2969 18.9174 11.2122C19.003 11.1275 19.0511 11.0126 19.0511 10.8929C19.0511 10.7731 19.003 10.6583 18.9174 10.5736C18.8318 10.489 18.7156 10.4414 18.5945 10.4414Z"/>
<path d="M18.5945 4.65552H13.2769C13.1558 4.65552 13.0396 4.70309 12.954 4.78777C12.8684 4.87245 12.8203 4.9873 12.8203 5.10705C12.8203 5.2268 12.8684 5.34165 12.954 5.42633C13.0396 5.51101 13.1558 5.55858 13.2769 5.55858H18.5945C18.7156 5.55858 18.8318 5.51101 18.9174 5.42633C19.003 5.34165 19.0511 5.2268 19.0511 5.10705C19.0511 4.9873 19.003 4.87245 18.9174 4.78777C18.8318 4.70309 18.7156 4.65552 18.5945 4.65552Z"/>
</svg>
