<svg width="22" height="17" viewBox="0 0 22 17" xmlns="http://www.w3.org/2000/svg">
<path d="M19.9369 0H2.06223C1.51476 0.000659041 0.989974 0.212131 0.603255 0.587918C0.216535 0.963705 -0.000452916 1.47304 7.09817e-07 2.00394V14.0043C0.000679176 14.5345 0.218167 15.0428 0.604764 15.4177C0.991361 15.7926 1.5155 16.0035 2.06223 16.0041H19.9369C20.4836 16.0035 21.0078 15.7926 21.3944 15.4177C21.781 15.0428 21.9985 14.5345 21.9991 14.0043V2.00394C21.9996 1.47304 21.7826 0.963705 21.3959 0.587918C21.0092 0.212131 20.4844 0.000659041 19.9369 0ZM19.9369 1.33347C20.0273 1.33356 20.1168 1.35102 20.2001 1.38486L11 9.118L1.79473 1.38486C1.87811 1.35102 1.96758 1.33356 2.05796 1.33347H19.9369ZM19.9369 14.6674H2.06223C1.8809 14.6674 1.707 14.5975 1.57878 14.4732C1.45056 14.3488 1.37853 14.1802 1.37853 14.0043V2.79374L10.553 10.5012C10.6782 10.6061 10.838 10.6638 11.0034 10.6638C11.1688 10.6638 11.3287 10.6061 11.4538 10.5012L20.6283 2.79374V14.0002C20.6282 14.088 20.6102 14.175 20.5754 14.256C20.5405 14.3371 20.4895 14.4107 20.4253 14.4726C20.3611 14.5345 20.2849 14.5835 20.201 14.6168C20.1172 14.6501 20.0275 14.667 19.9369 14.6665V14.6674Z"/>
</svg>