<svg width="26" height="26" viewBox="0 0 26 26" fill="none" xmlns="http://www.w3.org/2000/svg">
<path d="M23.4609 1.37109H2.53906C1.13902 1.37109 0 2.51012 0 3.91016V22.0898C0 23.4899 1.13902 24.6289 2.53906 24.6289H23.4609C24.861 24.6289 26 23.4899 26 22.0898V3.91016C26 2.51012 24.861 1.37109 23.4609 1.37109ZM24.9844 22.0898C24.9844 22.9299 24.301 23.6133 23.4609 23.6133H2.53906C1.69904 23.6133 1.01562 22.9299 1.01562 22.0898V3.91016C1.01562 3.07013 1.69904 2.38672 2.53906 2.38672H23.4609C24.301 2.38672 24.9844 3.07013 24.9844 3.91016V22.0898Z" fill="black"/>
<path d="M17.4688 19.2461C16.5727 19.2461 15.8438 19.9751 15.8438 20.8711C15.8438 21.7671 16.5727 22.4961 17.4688 22.4961C18.3648 22.4961 19.0938 21.7671 19.0938 20.8711C19.0938 19.9751 18.3648 19.2461 17.4688 19.2461ZM17.4688 21.4805C17.1327 21.4805 16.8594 21.2071 16.8594 20.8711C16.8594 20.5351 17.1327 20.2617 17.4688 20.2617C17.8048 20.2617 18.0781 20.5351 18.0781 20.8711C18.0781 21.2071 17.8048 21.4805 17.4688 21.4805Z" fill="black"/>
<path d="M21.9375 19.2461C21.0415 19.2461 20.3125 19.9751 20.3125 20.8711C20.3125 21.7671 21.0415 22.4961 21.9375 22.4961C22.8335 22.4961 23.5625 21.7671 23.5625 20.8711C23.5625 19.9751 22.8335 19.2461 21.9375 19.2461ZM21.9375 21.4805C21.6015 21.4805 21.3281 21.2071 21.3281 20.8711C21.3281 20.5351 21.6015 20.2617 21.9375 20.2617C22.2735 20.2617 22.5469 20.5351 22.5469 20.8711C22.5469 21.2071 22.2735 21.4805 21.9375 21.4805Z" fill="black"/>
<path d="M5.83878 20.3633H2.94531C2.66485 20.3633 2.4375 20.5906 2.4375 20.8711C2.4375 21.1516 2.66485 21.3789 2.94531 21.3789H5.83878C6.11924 21.3789 6.34659 21.1516 6.34659 20.8711C6.34659 20.5906 6.11924 20.3633 5.83878 20.3633Z" fill="black"/>
<path d="M12.2045 20.3633H9.31104C9.03057 20.3633 8.80322 20.5906 8.80322 20.8711C8.80322 21.1516 9.03057 21.3789 9.31104 21.3789H12.2045C12.485 21.3789 12.7123 21.1516 12.7123 20.8711C12.7123 20.5906 12.485 20.3633 12.2045 20.3633Z" fill="black"/>
<path d="M23.0547 3.80859H15.2852C15.0047 3.80859 14.7773 4.03594 14.7773 4.31641C14.7773 4.59687 15.0047 4.82422 15.2852 4.82422H22.5469V11.6208H21.2665C21.0645 11.6208 20.8818 11.7405 20.8011 11.9256L20.3476 12.9655L19.4299 10.1301C19.3686 9.94084 19.2025 9.80479 19.005 9.78199C18.807 9.75904 18.6146 9.85385 18.5119 10.0242L17.4661 11.7582H16.2505C16.0463 11.7582 15.862 11.8805 15.7826 12.0687L15.1491 13.5709L13.5466 6.60766C13.4948 6.38224 13.2971 6.22035 13.0658 6.21395C12.8366 6.20892 12.6282 6.35822 12.5639 6.58044L11.0351 11.8648H9.28439C9.05496 11.8648 8.85402 12.0187 8.79414 12.2402L8.51988 13.2549L7.06443 8.94055C6.99771 8.74275 6.81682 8.606 6.60837 8.59564C6.3992 8.58493 6.20633 8.7036 6.12046 8.89383L4.76267 11.9004H3.45312V4.82422H10.7148C10.9953 4.82422 11.2227 4.59687 11.2227 4.31641C11.2227 4.03594 10.9953 3.80859 10.7148 3.80859H2.94531C2.66485 3.80859 2.4375 4.03594 2.4375 4.31641V17.6211C2.4375 17.9016 2.66485 18.1289 2.94531 18.1289H23.0547C23.3351 18.1289 23.5625 17.9016 23.5625 17.6211V4.31641C23.5625 4.03594 23.3351 3.80859 23.0547 3.80859ZM3.45312 17.1133V12.916H5.09062C5.29019 12.916 5.47127 12.7991 5.55344 12.6172L6.51483 10.4884L8.0925 15.1651C8.164 15.377 8.36413 15.518 8.58929 15.5103C8.81283 15.5035 9.00555 15.3512 9.06395 15.1353L9.67332 12.8805H11.417C11.6431 12.8805 11.842 12.731 11.9048 12.5138L12.9959 8.7425L14.5118 15.3298C14.5612 15.5445 14.7434 15.7029 14.9628 15.7219C14.9776 15.7231 14.9922 15.7238 15.0069 15.7238C15.2095 15.7238 15.3948 15.6026 15.4746 15.4133L16.5876 12.7738H17.7529C17.9309 12.7738 18.0958 12.6807 18.1877 12.5283L18.8066 11.5023L19.7942 14.5536C19.8591 14.7544 20.0416 14.8941 20.2523 14.9044C20.4642 14.9151 20.6584 14.7937 20.7427 14.6002L21.5991 12.6365H22.5469V17.1133H3.45312Z" fill="black"/>
<path d="M13 4.82422C13.1336 4.82422 13.2646 4.76988 13.359 4.67543C13.4535 4.58098 13.5078 4.44996 13.5078 4.31641C13.5078 4.18285 13.4535 4.05184 13.359 3.95738C13.2646 3.86293 13.1336 3.80859 13 3.80859C12.8664 3.80859 12.7354 3.86293 12.641 3.95738C12.5465 4.05184 12.4922 4.18285 12.4922 4.31641C12.4922 4.44996 12.5465 4.58098 12.641 4.67543C12.7354 4.76988 12.8664 4.82422 13 4.82422Z" fill="black"/>
</svg>
