<svg width="26" height="26" viewBox="0 0 26 26" fill="none" xmlns="http://www.w3.org/2000/svg">
<path d="M14.7449 21.9375L9.20851 13.3792V6.5C9.20851 6.20084 8.96598 5.95831 8.66683 5.95831H5.95851C5.65936 5.95831 5.41683 6.20084 5.41683 6.5V13.3943L0.369068 21.9754C0.127604 22.3858 0.000244142 22.8533 0.000244142 23.3296C0.000193361 24.8044 1.19579 25.9999 2.67058 26H12.5343C13.0413 25.9998 13.5374 25.8534 13.9631 25.5782C15.1843 24.7887 15.5344 23.1587 14.7449 21.9375ZM12.5343 24.9167H2.67058C2.38666 24.9171 2.10777 24.8414 1.86305 24.6974C1.10763 24.2529 0.855603 23.2801 1.30014 22.5247L6.42544 13.8163C6.4744 13.7331 6.50019 13.6383 6.50019 13.5417V7.04168H8.12519V13.5417C8.12514 13.646 8.15526 13.7482 8.21188 13.8358L13.8344 22.5257C13.9966 22.7764 14.0829 23.0684 14.083 23.367C14.0833 24.2226 13.3899 24.9164 12.5343 24.9167Z" fill="white"/>
<path d="M7.80275 15.7479L6.86893 15.1992L2.26963 23.0171C2.22057 23.1004 2.19472 23.1955 2.19482 23.2922C2.19513 23.5914 2.43791 23.8337 2.73707 23.8333H6.50001V22.75H3.68337L7.80275 15.7479Z" fill="white"/>
<path d="M24.6923 12.4583H16.2499C15.0533 12.4583 14.0833 13.4284 14.0833 14.625V23.2917C14.085 24.7867 15.2966 25.9982 16.7916 26H21.6666C23.1616 25.9982 24.3731 24.7867 24.3749 23.2917V15.9326L25.6175 14.6905C25.8621 14.4454 25.9995 14.1134 25.9997 13.7671C26.0001 13.0447 25.4148 12.4587 24.6923 12.4583ZM24.8511 13.9246L23.4503 15.3254C23.3487 15.4269 23.2916 15.5647 23.2916 15.7083V23.2916C23.2916 24.1891 22.5641 24.9166 21.6666 24.9166H16.7916C15.8942 24.9166 15.1666 24.1891 15.1666 23.2916V14.625C15.1666 14.0267 15.6516 13.5417 16.2499 13.5417H24.6924C24.752 13.5416 24.8092 13.5653 24.8514 13.6075C24.9388 13.6951 24.9387 13.8371 24.8511 13.9246Z" fill="white"/>
<path d="M21.125 15.7083V22.75H19.5V23.8333H21.6667C21.9658 23.8333 22.2084 23.5908 22.2084 23.2916V15.7083H21.125Z" fill="white"/>
<path d="M15.1668 7.8455V0.541684C15.1668 0.242531 14.9243 0 14.6252 0H10.8335C10.5343 0 10.2918 0.242531 10.2918 0.541684V7.99937C9.63074 8.2029 8.99481 8.48037 8.396 8.82649L8.93768 9.76412C9.57407 9.39666 10.2574 9.11732 10.9689 8.93374C11.2082 8.87194 11.3754 8.65602 11.3752 8.40887V1.08332H14.0835V8.28263C14.0836 8.54263 14.2684 8.76591 14.5239 8.81456C16.4232 9.17764 18.131 10.2056 19.3409 11.7141L20.1854 11.0359C18.9107 9.44745 17.1461 8.32564 15.1668 7.8455Z" fill="white"/>
<path d="M23.0208 7.58331C21.9738 7.58331 21.125 8.43212 21.125 9.47913C21.125 10.5262 21.9738 11.3749 23.0208 11.3749C24.0679 11.3749 24.9166 10.5261 24.9166 9.47913C24.9166 8.43212 24.0679 7.58331 23.0208 7.58331ZM23.0208 10.2917C22.5721 10.2917 22.2083 9.92793 22.2083 9.47918C22.2083 9.03043 22.5721 8.66668 23.0208 8.66668C23.4696 8.66668 23.8333 9.03043 23.8333 9.47918C23.8333 9.92793 23.4696 10.2917 23.0208 10.2917Z" fill="white"/>
<path d="M21.125 3.79169C20.2275 3.79169 19.5 4.51923 19.5 5.41669C19.5 6.31414 20.2275 7.04169 21.125 7.04169C22.0225 7.04169 22.75 6.31414 22.75 5.41669C22.75 4.51923 22.0225 3.79169 21.125 3.79169ZM21.125 5.95832C20.8258 5.95832 20.5833 5.71579 20.5833 5.41664C20.5833 5.11748 20.8258 4.875 21.125 4.875C21.4242 4.875 21.6667 5.11754 21.6667 5.41669C21.6667 5.71584 21.4242 5.95832 21.125 5.95832Z" fill="white"/>
<path d="M1.89582 4.33331C0.848758 4.33331 0 5.18212 0 6.22913C0 7.27619 0.848758 8.125 1.89582 8.125C2.94287 8.125 3.79163 7.27619 3.79163 6.22918C3.79163 5.18212 2.94287 4.33331 1.89582 4.33331ZM1.89582 7.04168C1.44706 7.04168 1.08332 6.67793 1.08332 6.22918C1.08332 5.78043 1.44706 5.41668 1.89582 5.41668C2.34457 5.41668 2.70832 5.78043 2.70832 6.22918C2.70832 6.67793 2.34457 7.04168 1.89582 7.04168Z" fill="white"/>
<path d="M4.33325 0.541687C3.43579 0.541687 2.70825 1.26923 2.70825 2.16669C2.70825 3.06414 3.43579 3.79169 4.33325 3.79169C5.23071 3.79169 5.95825 3.06414 5.95825 2.16669C5.95825 1.26923 5.23071 0.541687 4.33325 0.541687ZM4.33325 2.70832C4.0341 2.70832 3.79157 2.46579 3.79157 2.16664C3.79157 1.86753 4.0341 1.625 4.33325 1.625C4.6324 1.625 4.87494 1.86753 4.87494 2.16669C4.87494 2.46584 4.6324 2.70832 4.33325 2.70832Z" fill="white"/>
<path d="M17.875 15.7083H16.25V16.7916H17.875V15.7083Z" fill="white"/>
<path d="M17.3333 17.875H16.25V18.9583H17.3333V17.875Z" fill="white"/>
<path d="M17.875 20.0417H16.25V21.125H17.875V20.0417Z" fill="white"/>
<path d="M17.3333 22.2083H16.25V23.2916H17.3333V22.2083Z" fill="white"/>
<path d="M2.16657 9.75H1.08325V10.8333H2.16657V9.75Z" fill="white"/>
<path d="M3.79157 12.4583H2.70825V13.5416H3.79157V12.4583Z" fill="white"/>
<path d="M13.0001 14.625H11.9167V15.7083H13.0001V14.625Z" fill="white"/>
<path d="M11.9168 12.4583H10.8335V13.5416H11.9168V12.4583Z" fill="white"/>
<path d="M11.3751 10.2917H10.2917V11.375H11.3751V10.2917Z" fill="white"/>
<path d="M11.9168 22.2083H10.8335V23.2916H11.9168V22.2083Z" fill="white"/>
<path d="M10.2918 20.0417H9.2085V21.125H10.2918V20.0417Z" fill="white"/>
</svg>
