<svg width="26" height="26" viewBox="0 0 26 26" fill="none" xmlns="http://www.w3.org/2000/svg">
<g clip-path="url(#clip0)">
<path d="M20.2697 1.76193C17.9714 -0.566807 14.2199 -0.591128 11.8912 1.71329C11.8729 1.73153 11.8608 1.74369 11.8425 1.76193L6.91751 6.68693C6.82022 6.74165 6.74118 6.8207 6.68646 6.91798L1.73105 11.8673C-0.57944 14.1839 -0.57336 17.9354 1.73713 20.2459C4.06587 22.5503 7.8113 22.5503 10.1461 20.2459L10.1522 20.2398L15.1015 15.2722C15.138 15.2479 15.1684 15.2236 15.1988 15.1932C15.2292 15.1628 15.2535 15.1324 15.2779 15.0959L20.2211 10.1405C22.5498 7.84218 22.5681 4.09066 20.2697 1.76193ZM9.28881 19.3825C7.43433 21.2127 4.44893 21.2187 2.59445 19.3825C0.764295 17.5402 0.764295 14.5669 2.59445 12.7246L7.23976 8.07931L13.9037 14.7554L9.28881 19.3825ZM19.3638 9.27104L14.761 13.8859L8.09708 7.22199L12.7059 2.61316C14.5421 0.776928 17.5275 0.776928 19.3638 2.61316C21.2 4.4494 21.2 7.4348 19.3638 9.27104Z" fill="black"/>
<path d="M14.645 4.48583C14.414 4.24262 14.0309 4.23654 13.7877 4.47975L11.684 6.54703C11.4407 6.78416 11.4407 7.16722 11.6718 7.40435C11.9028 7.64148 12.292 7.64756 12.5291 7.41651L12.5352 7.41043L14.6329 5.34314C14.8761 5.10602 14.8761 4.72296 14.645 4.48583Z" fill="black"/>
<path d="M24.276 15.9349C24.276 15.9349 24.276 15.9349 24.2699 15.9288C22.002 13.6244 18.293 13.6001 15.9886 15.8741C15.9704 15.8924 15.9521 15.9106 15.9339 15.9288C13.6295 18.2333 13.6295 21.9665 15.9278 24.271C18.2262 26.5754 21.9655 26.5754 24.2699 24.277C26.5744 21.9726 26.5744 18.2393 24.276 15.9349ZM15.4232 20.0999C15.4232 17.5158 17.5209 15.4181 20.105 15.4181C21.1325 15.4181 22.1358 15.7586 22.9505 16.3849L16.3899 22.9515C15.7637 22.1307 15.4232 21.1275 15.4232 20.0999ZM23.4126 23.4076C21.7527 25.0675 19.1139 25.2377 17.2533 23.8089L23.8139 17.2483C25.2489 19.1088 25.0786 21.7476 23.4126 23.4076Z" fill="black"/>
</g>
<defs>
<clipPath id="clip0">
<rect width="26" height="26" fill="white"/>
</clipPath>
</defs>
</svg>
