<svg width="26" height="26" viewBox="0 0 26 26" fill="none" xmlns="http://www.w3.org/2000/svg">
<path d="M20.7228 22.75H20.7187C20.6106 22.7505 20.5072 22.7939 20.431 22.8707C20.3548 22.9474 20.3122 23.0512 20.3125 23.1593C20.3128 23.2674 20.3559 23.371 20.4324 23.4473C20.509 23.5237 20.6127 23.5666 20.7208 23.5666C20.8289 23.5666 20.9326 23.5237 21.0091 23.4473C21.0857 23.371 21.1288 23.2674 21.1291 23.1593C21.1293 23.0512 21.0867 22.9474 21.0106 22.8707C20.9344 22.7939 20.8309 22.7505 20.7228 22.75Z" fill="black"/>
<path d="M20.7228 21.125H20.7187C20.6106 21.1255 20.5072 21.1689 20.431 21.2457C20.3548 21.3224 20.3122 21.4262 20.3125 21.5343C20.3128 21.6424 20.3559 21.746 20.4324 21.8223C20.509 21.8987 20.6127 21.9416 20.7208 21.9416C20.8289 21.9416 20.9326 21.8987 21.0091 21.8223C21.0857 21.746 21.1288 21.6424 21.1291 21.5343C21.1293 21.4262 21.0867 21.3224 21.0106 21.2457C20.9344 21.1689 20.8309 21.1255 20.7228 21.125Z" fill="black"/>
<path d="M20.7228 19.5H20.7187C20.6106 19.5005 20.5072 19.5439 20.431 19.6207C20.3548 19.6974 20.3122 19.8012 20.3125 19.9093C20.3128 20.0174 20.3559 20.121 20.4324 20.1973C20.509 20.2737 20.6127 20.3166 20.7208 20.3166C20.8289 20.3166 20.9326 20.2737 21.0091 20.1973C21.0857 20.121 21.1288 20.0174 21.1291 19.9093C21.1293 19.8012 21.0867 19.6974 21.0106 19.6207C20.9344 19.5439 20.8309 19.5005 20.7228 19.5Z" fill="black"/>
<path d="M20.7228 17.875H20.7187C20.6106 17.8755 20.5072 17.9189 20.431 17.9957C20.3548 18.0724 20.3122 18.1762 20.3125 18.2843C20.3128 18.3924 20.3559 18.496 20.4324 18.5723C20.509 18.6487 20.6127 18.6916 20.7208 18.6916C20.8289 18.6916 20.9326 18.6487 21.0091 18.5723C21.0857 18.496 21.1288 18.3924 21.1291 18.2843C21.1293 18.1762 21.0867 18.0724 21.0106 17.9957C20.9344 17.9189 20.8309 17.8755 20.7228 17.875Z" fill="black"/>
<path d="M20.7228 16.25H20.7187C20.6106 16.2505 20.5072 16.2939 20.431 16.3707C20.3548 16.4474 20.3122 16.5512 20.3125 16.6593C20.3128 16.7674 20.3559 16.871 20.4324 16.9473C20.509 17.0237 20.6127 17.0666 20.7208 17.0666C20.8289 17.0666 20.9326 17.0237 21.0091 16.9473C21.0857 16.871 21.1288 16.7674 21.1291 16.6593C21.1293 16.5512 21.0867 16.4474 21.0106 16.3707C20.9344 16.2939 20.8309 16.2505 20.7228 16.25Z" fill="black"/>
<path d="M20.7228 14.625H20.7187C20.6106 14.6255 20.5072 14.6689 20.431 14.7457C20.3548 14.8224 20.3122 14.9262 20.3125 15.0343C20.3128 15.1424 20.3559 15.246 20.4324 15.3223C20.509 15.3987 20.6127 15.4416 20.7208 15.4416C20.8289 15.4416 20.9326 15.3987 21.0091 15.3223C21.0857 15.246 21.1288 15.1424 21.1291 15.0343C21.1293 14.9262 21.0867 14.8224 21.0106 14.7457C20.9344 14.6689 20.8309 14.6255 20.7228 14.625Z" fill="black"/>
<path d="M20.7228 13H20.7187C20.6106 13.0005 20.5072 13.0439 20.431 13.1207C20.3548 13.1974 20.3122 13.3012 20.3125 13.4093C20.3128 13.5174 20.3559 13.621 20.4324 13.6973C20.509 13.7737 20.6127 13.8166 20.7208 13.8166C20.8289 13.8166 20.9326 13.7737 21.0091 13.6973C21.0857 13.621 21.1288 13.5174 21.1291 13.4093C21.1293 13.3012 21.0867 13.1974 21.0106 13.1207C20.9344 13.0439 20.8309 13.0005 20.7228 13Z" fill="black"/>
<path d="M20.7228 11.375H20.7187C20.6106 11.3755 20.5072 11.4189 20.431 11.4957C20.3548 11.5724 20.3122 11.6762 20.3125 11.7843C20.3128 11.8924 20.3559 11.996 20.4324 12.0723C20.509 12.1487 20.6127 12.1916 20.7208 12.1916C20.8289 12.1916 20.9326 12.1487 21.0091 12.0723C21.0857 11.996 21.1288 11.8924 21.1291 11.7843C21.1293 11.6762 21.0867 11.5724 21.0106 11.4957C20.9344 11.4189 20.8309 11.3755 20.7228 11.375Z" fill="black"/>
<path d="M20.7228 3.25H20.7187C20.6106 3.25054 20.5072 3.29393 20.431 3.37066C20.3548 3.44738 20.3122 3.55119 20.3125 3.65929C20.3128 3.7674 20.3559 3.87099 20.4324 3.94733C20.509 4.02368 20.6127 4.06656 20.7208 4.06656C20.8289 4.06656 20.9326 4.02368 21.0091 3.94733C21.0857 3.87099 21.1288 3.7674 21.1291 3.65929C21.1293 3.55119 21.0867 3.44738 21.0106 3.37066C20.9344 3.29393 20.8309 3.25054 20.7228 3.25Z" fill="black"/>
<path d="M20.7228 9.75H20.7187C20.6106 9.75054 20.5072 9.79393 20.431 9.87066C20.3548 9.94739 20.3122 10.0512 20.3125 10.1593C20.3128 10.2674 20.3559 10.371 20.4324 10.4473C20.509 10.5237 20.6127 10.5666 20.7208 10.5666C20.8289 10.5666 20.9326 10.5237 21.0091 10.4473C21.0857 10.371 21.1288 10.2674 21.1291 10.1593C21.1293 10.0512 21.0867 9.94739 21.0106 9.87066C20.9344 9.79393 20.8309 9.75054 20.7228 9.75Z" fill="black"/>
<path d="M20.7228 8.125H20.7187C20.6106 8.12554 20.5072 8.16893 20.431 8.24566C20.3548 8.32239 20.3122 8.42619 20.3125 8.53429C20.3128 8.6424 20.3559 8.74599 20.4324 8.82233C20.509 8.89868 20.6127 8.94156 20.7208 8.94156C20.8289 8.94156 20.9326 8.89868 21.0091 8.82233C21.0857 8.74599 21.1288 8.6424 21.1291 8.53429C21.1293 8.42619 21.0867 8.32239 21.0106 8.24566C20.9344 8.16893 20.8309 8.12554 20.7228 8.125Z" fill="black"/>
<path d="M20.7228 6.5H20.7187C20.6106 6.50054 20.5072 6.54393 20.431 6.62066C20.3548 6.69739 20.3122 6.80119 20.3125 6.90929C20.3128 7.0174 20.3559 7.12099 20.4324 7.19733C20.509 7.27368 20.6127 7.31656 20.7208 7.31656C20.8289 7.31656 20.9326 7.27368 21.0091 7.19733C21.0857 7.12099 21.1288 7.0174 21.1291 6.90929C21.1293 6.80119 21.0867 6.69739 21.0106 6.62066C20.9344 6.54393 20.8309 6.50054 20.7228 6.5Z" fill="black"/>
<path d="M20.7228 4.875H20.7187C20.6106 4.87554 20.5072 4.91893 20.431 4.99566C20.3548 5.07238 20.3122 5.17619 20.3125 5.28429C20.3128 5.3924 20.3559 5.49599 20.4324 5.57233C20.509 5.64868 20.6127 5.69156 20.7208 5.69156C20.8289 5.69156 20.9326 5.64868 21.0091 5.57233C21.0857 5.49599 21.1288 5.3924 21.1291 5.28429C21.1293 5.17619 21.0867 5.07238 21.0106 4.99566C20.9344 4.91893 20.8309 4.87554 20.7228 4.875Z" fill="black"/>
<path d="M24.7812 25.1875C24.889 25.1875 24.9923 25.1447 25.0685 25.0685C25.1447 24.9923 25.1875 24.889 25.1875 24.7812V1.21875C25.1875 1.11101 25.1447 1.00767 25.0685 0.931488C24.9923 0.855301 24.889 0.8125 24.7812 0.8125C24.0273 0.813347 23.3045 1.11323 22.7714 1.64635C22.2382 2.17947 21.9383 2.9023 21.9375 3.65625V22.3438C21.9383 23.0977 22.2382 23.8205 22.7714 24.3536C23.3045 24.8868 24.0273 25.1867 24.7812 25.1875ZM22.75 3.65625C22.7506 3.18816 22.9125 2.73459 23.2085 2.37198C23.5045 2.00937 23.9165 1.75991 24.375 1.66562V24.3344C23.9165 24.2401 23.5045 23.9906 23.2085 23.628C22.9125 23.2654 22.7506 22.8118 22.75 22.3438V3.65625Z" fill="black"/>
<path d="M8.66557 12.187H8.53125V10.9682H8.55877C9.45679 10.9661 10.669 10.964 10.9897 11.0978C11.0202 11.1894 11.0824 11.267 11.1649 11.3169C11.2475 11.3668 11.3452 11.3856 11.4404 11.3701C11.5356 11.3546 11.6222 11.3057 11.6846 11.2321C11.7471 11.1586 11.7813 11.0652 11.7812 10.9688C11.7814 10.8884 11.7653 10.8089 11.7341 10.7348C11.7028 10.6608 11.6569 10.5939 11.5992 10.538C11.2275 10.1669 10.3487 10.1517 8.5574 10.1557H8.53125C8.53125 10.048 8.48845 9.94463 8.41226 9.86844C8.33608 9.79225 8.23274 9.74945 8.125 9.74945C8.01726 9.74945 7.91392 9.79225 7.83774 9.86844C7.76155 9.94463 7.71875 10.048 7.71875 10.1557H7.69285C5.90027 10.1516 5.02262 10.1669 4.6508 10.538C4.59308 10.5939 4.54721 10.6608 4.51593 10.7348C4.48466 10.8089 4.46861 10.8884 4.46875 10.9688C4.46866 11.0652 4.5029 11.1586 4.56535 11.2321C4.62781 11.3057 4.71439 11.3546 4.80961 11.3701C4.90483 11.3856 5.00247 11.3668 5.08505 11.3169C5.16763 11.267 5.22977 11.1894 5.26033 11.0978C5.58106 10.964 6.79341 10.9663 7.69123 10.9682H7.71875V12.187H7.58443C5.26581 12.1831 4.22302 12.1982 3.83038 12.5903C3.77568 12.6436 3.73213 12.7073 3.70224 12.7777C3.67234 12.848 3.65671 12.9236 3.65625 13C3.65618 13.0944 3.68898 13.1859 3.749 13.2587C3.80903 13.3315 3.89255 13.3812 3.98521 13.3991C4.07786 13.4171 4.17388 13.4022 4.25678 13.3571C4.33967 13.312 4.40425 13.2394 4.43945 13.1518C4.81858 12.9951 6.34451 12.9971 7.58316 12.9995H7.71875V14.2182H7.69285C5.90027 14.2141 5.02262 14.2294 4.6508 14.6005C4.59308 14.6564 4.54721 14.7233 4.51593 14.7973C4.48466 14.8714 4.46861 14.9509 4.46875 15.0313C4.46866 15.1277 4.5029 15.2211 4.56535 15.2946C4.62781 15.3682 4.71439 15.4171 4.80961 15.4326C4.90483 15.4481 5.00247 15.4293 5.08505 15.3794C5.16763 15.3295 5.22977 15.2519 5.26033 15.1603C5.58106 15.0265 6.79341 15.0286 7.69123 15.0307H7.71875V16.25H6.5C6.39226 16.25 6.28892 16.2928 6.21274 16.369C6.13655 16.4452 6.09375 16.5485 6.09375 16.6563C6.09375 17.195 6.30776 17.7116 6.68869 18.0926C7.06962 18.4735 7.58628 18.6875 8.125 18.6875C8.66372 18.6875 9.18038 18.4735 9.56131 18.0926C9.94224 17.7116 10.1562 17.195 10.1562 16.6563C10.1562 16.5485 10.1134 16.4452 10.0373 16.369C9.96108 16.2928 9.85774 16.25 9.75 16.25H8.53125V15.0308H8.55877C9.45679 15.0286 10.669 15.0266 10.9897 15.1604C11.0202 15.2519 11.0824 15.3296 11.165 15.3794C11.2475 15.4293 11.3452 15.4482 11.4404 15.4327C11.5356 15.4171 11.6222 15.3682 11.6847 15.2947C11.7471 15.2211 11.7814 15.1277 11.7812 15.0313C11.7814 14.9509 11.7653 14.8714 11.7341 14.7973C11.7028 14.7233 11.6569 14.6564 11.5992 14.6005C11.2275 14.2294 10.3487 14.2145 8.5574 14.2182H8.53125V12.9995H8.66684C9.90493 12.9972 11.4314 12.995 11.8106 13.1518C11.8457 13.2394 11.9103 13.312 11.9932 13.3571C12.0761 13.4022 12.1721 13.4171 12.2648 13.3991C12.3575 13.3812 12.441 13.3315 12.501 13.2587C12.561 13.1859 12.5938 13.0944 12.5938 13C12.5933 12.9236 12.5777 12.848 12.5478 12.7777C12.5179 12.7073 12.4743 12.6436 12.4196 12.5903C12.027 12.1982 10.9857 12.1831 8.66557 12.187ZM9.27413 17.0625C9.19015 17.3002 9.03455 17.506 8.82874 17.6515C8.62294 17.7971 8.37707 17.8752 8.125 17.8752C7.87293 17.8752 7.62706 17.7971 7.42126 17.6515C7.21545 17.506 7.05985 17.3002 6.97587 17.0625H9.27413Z" fill="black"/>
<path d="M1.21875 20.3125H4.46875V23.5625C4.46875 23.9935 4.63995 24.4068 4.9447 24.7115C5.24945 25.0163 5.66277 25.1875 6.09375 25.1875C6.52473 25.1875 6.93805 25.0163 7.2428 24.7115C7.54754 24.4068 7.71875 23.9935 7.71875 23.5625V20.3125H8.53125V23.5625C8.53125 23.9935 8.70246 24.4068 9.0072 24.7115C9.31195 25.0163 9.72527 25.1875 10.1562 25.1875C10.5872 25.1875 11.0006 25.0163 11.3053 24.7115C11.61 24.4068 11.7812 23.9935 11.7812 23.5625V20.3125H15.0312C15.139 20.3125 15.2423 20.2697 15.3185 20.1935C15.3947 20.1173 15.4375 20.014 15.4375 19.9062V8.53125C15.4375 8.42351 15.3947 8.32017 15.3185 8.24399C15.2423 8.1678 15.139 8.125 15.0312 8.125H13.783C13.6845 7.44859 13.3461 6.83016 12.8294 6.38265C12.3127 5.93514 11.6523 5.6884 10.9688 5.6875H9.62706C9.7268 5.56845 9.81892 5.44321 9.90285 5.31253C10.3097 4.68081 10.5625 3.8905 10.5625 3.25C10.5625 2.60353 10.3057 1.98355 9.84857 1.52643C9.39145 1.06931 8.77147 0.8125 8.125 0.8125C7.47853 0.8125 6.85855 1.06931 6.40143 1.52643C5.94431 1.98355 5.6875 2.60353 5.6875 3.25C5.6875 3.8905 5.94029 4.68081 6.34715 5.31253C6.43108 5.44321 6.5232 5.56845 6.62294 5.6875H5.28125C4.59771 5.6884 3.9373 5.93514 3.42062 6.38265C2.90394 6.83016 2.56547 7.44859 2.467 8.125H1.21875C1.11101 8.125 1.00767 8.1678 0.931488 8.24399C0.855301 8.32017 0.8125 8.42351 0.8125 8.53125V19.9062C0.8125 20.014 0.855301 20.1173 0.931488 20.1935C1.00767 20.2697 1.11101 20.3125 1.21875 20.3125ZM6.90625 23.5625C6.90625 23.778 6.82065 23.9847 6.66827 24.137C6.5159 24.2894 6.30924 24.375 6.09375 24.375C5.87826 24.375 5.6716 24.2894 5.51923 24.137C5.36685 23.9847 5.28125 23.778 5.28125 23.5625V20.3125H6.90625V23.5625ZM10.9688 23.5625C10.9688 23.778 10.8831 23.9847 10.7308 24.137C10.5784 24.2894 10.3717 24.375 10.1562 24.375C9.94076 24.375 9.7341 24.2894 9.58173 24.137C9.42935 23.9847 9.34375 23.778 9.34375 23.5625V20.3125H10.9688V23.5625ZM6.5 3.25C6.5 2.81902 6.67121 2.4057 6.97595 2.10095C7.2807 1.7962 7.69402 1.625 8.125 1.625C8.55598 1.625 8.9693 1.7962 9.27405 2.10095C9.57879 2.4057 9.75 2.81902 9.75 3.25C9.75 4.25689 8.90957 5.6875 8.125 5.6875C7.34043 5.6875 6.5 4.25689 6.5 3.25ZM5.28125 6.5H10.9688C11.4368 6.50056 11.8904 6.6625 12.253 6.95851C12.6156 7.25452 12.8651 7.6665 12.9594 8.125H3.29088C3.38513 7.66654 3.63456 7.25459 3.99712 6.95859C4.35968 6.66258 4.8132 6.50062 5.28125 6.5ZM1.625 8.9375H14.625V19.5H1.625V8.9375Z" fill="black"/>
<path d="M19.5 23.1562V3.65625C19.5 3.54851 19.4572 3.44517 19.381 3.36899C19.3048 3.2928 19.2015 3.25 19.0938 3.25H11.7812C11.6735 3.25 11.5702 3.2928 11.494 3.36899C11.4178 3.44517 11.375 3.54851 11.375 3.65625C11.375 3.76399 11.4178 3.86733 11.494 3.94351C11.5702 4.0197 11.6735 4.0625 11.7812 4.0625H18.6875V22.75H14.2188C14.111 22.75 14.0077 22.7928 13.9315 22.869C13.8553 22.9452 13.8125 23.0485 13.8125 23.1562C13.8125 23.264 13.8553 23.3673 13.9315 23.4435C14.0077 23.5197 14.111 23.5625 14.2188 23.5625H19.0938C19.2015 23.5625 19.3048 23.5197 19.381 23.4435C19.4572 23.3673 19.5 23.264 19.5 23.1562Z" fill="black"/>
</svg>
