<svg width="30" height="30" viewBox="0 0 30 30" fill="none" xmlns="http://www.w3.org/2000/svg">
<path fill-rule="evenodd" clip-rule="evenodd" d="M14.9998 27C21.6273 27 26.9998 21.6274 26.9998 15C26.9998 8.3726 21.6273 3.00002 14.9998 3.00002C8.37242 3.00002 2.99984 8.3726 2.99984 15C2.99984 21.6274 8.37242 27 14.9998 27ZM29.6665 15C29.6665 23.1002 23.1 29.6667 14.9998 29.6667C6.89966 29.6667 0.333173 23.1002 0.333174 15C0.333174 6.89984 6.89966 0.333353 14.9998 0.333354C23.1 0.333355 29.6665 6.89985 29.6665 15Z" fill="#687EF0"/>
<path d="M14.057 21.2762C14.5777 21.7969 15.4219 21.7969 15.9426 21.2762C16.4633 20.7555 16.4633 19.9112 15.9426 19.3905L12.8855 16.3334L20.3332 16.3334C21.0696 16.3334 21.6665 15.7364 21.6665 15C21.6665 14.2636 21.0696 13.6667 20.3332 13.6667L12.8855 13.6667L15.9426 10.6095C16.4633 10.0888 16.4633 9.24458 15.9426 8.72388C15.422 8.20318 14.5777 8.20318 14.057 8.72388L8.7237 14.0572C8.203 14.5779 8.203 15.4221 8.7237 15.9428L14.057 21.2762Z" fill="#687EF0"/>
</svg>
