<svg width="30" height="30" viewBox="0 0 30 30" fill="none" xmlns="http://www.w3.org/2000/svg"><path fill-rule="evenodd" clip-rule="evenodd" d="M15.0002 2.99998C8.37275 2.99998 3.00016 8.37256 3.00016 15C3.00016 21.6274 8.37275 27 15.0002 27C21.6276 27 27.0002 21.6274 27.0002 15C27.0002 8.37256 21.6276 2.99998 15.0002 2.99998ZM0.333496 15C0.333496 6.8998 6.89999 0.333313 15.0002 0.333313C23.1003 0.333313 29.6668 6.8998 29.6668 15C29.6668 23.1002 23.1003 29.6666 15.0002 29.6666C6.89999 29.6666 0.333496 23.1002 0.333496 15Z" fill="#687EF0"/><path d="M15.943 8.72384C15.4223 8.20314 14.5781 8.20314 14.0574 8.72384C13.5367 9.24454 13.5367 10.0888 14.0574 10.6095L17.1145 13.6666H9.66683C8.93045 13.6666 8.3335 14.2636 8.3335 15C8.3335 15.7364 8.93045 16.3333 9.66683 16.3333H17.1145L14.0574 19.3905C13.5367 19.9112 13.5367 20.7554 14.0574 21.2761C14.5781 21.7968 15.4223 21.7968 15.943 21.2761L21.2763 15.9428C21.797 15.4221 21.797 14.5779 21.2763 14.0572L15.943 8.72384Z" fill="#687EF0"/></svg>