<svg viewBox="0 0 32 32" fill="none" xmlns="http://www.w3.org/2000/svg">
<path d="M17.7678 16.0001L31.6339 2.13395C32.122 1.64576 32.122 0.854265 31.6339 0.36614C31.1457 -0.121984 30.3542 -0.122047 29.8661 0.36614L16 14.2323L2.13395 0.36614C1.64576 -0.122047 0.854263 -0.122047 0.36614 0.36614C-0.121984 0.854328 -0.122047 1.64583 0.36614 2.13395L14.2322 16L0.36614 29.8661C-0.122047 30.3543 -0.122047 31.1458 0.36614 31.6339C0.610201 31.878 0.930138 32 1.25007 32C1.57001 32 1.88989 31.878 2.13401 31.6339L16 17.7679L29.866 31.6339C30.1101 31.878 30.43 32 30.7499 32C31.0699 32 31.3897 31.878 31.6339 31.6339C32.122 31.1458 32.122 30.3542 31.6339 29.8661L17.7678 16.0001Z"/>
</svg>
