<svg width="18" height="18" viewBox="0 0 18 18" xmlns="http://www.w3.org/2000/svg">
<path d="M12.9629 16.6606C12.2018 17.0769 11.341 17.2969 10.4736 17.2969H0.998051C0.803916 17.2969 0.646484 17.4543 0.646484 17.6484C0.646484 17.8426 0.803916 18 0.998051 18H10.4736C11.4586 18 12.436 17.7502 13.3002 17.2775C13.4706 17.1844 13.5332 16.9707 13.44 16.8004C13.3469 16.63 13.1332 16.5674 12.9629 16.6606Z"/>
<path d="M16.9376 11.9812C16.3902 11.4387 15.5015 11.4408 14.9566 11.9859L12.8955 14.0476C12.5433 14.3999 12.1262 14.6636 11.6711 14.8275C11.7311 14.6717 11.764 14.5025 11.764 14.3258C11.764 13.5532 11.1356 12.9246 10.3631 12.9246L7.57901 12.9246L7.05352 12.3893C6.34497 11.6677 5.35851 11.2537 4.34716 11.2537C3.51876 11.2537 2.70021 11.531 2.04232 12.0344L0.784418 12.997C0.630221 13.115 0.600865 13.3356 0.718886 13.4898C0.836872 13.644 1.05755 13.6733 1.21175 13.5554L2.46965 12.5928C3.00555 12.1827 3.67236 11.9569 4.34716 11.9569C5.17106 11.9569 5.9746 12.294 6.5518 12.8819L7.18065 13.5225C7.24674 13.5898 7.33713 13.6277 7.43152 13.6277L10.3632 13.6278C10.7479 13.6278 11.0609 13.9409 11.0609 14.3258C11.0609 14.7106 10.7479 15.0237 10.363 15.0237L5.74601 15.0238C5.55187 15.0238 5.39444 15.1812 5.39444 15.3753C5.39444 15.5695 5.55187 15.7269 5.74601 15.7269H10.5395C11.6175 15.7269 12.6308 15.3071 13.3929 14.5448L15.454 12.4831C15.726 12.2111 16.1696 12.2099 16.4428 12.4808C16.5763 12.6129 16.65 12.7892 16.6504 12.977C16.6509 13.1648 16.578 13.3414 16.4452 13.4742L15.2661 14.6532C15.1288 14.7905 15.1288 15.0131 15.2661 15.1504C15.4034 15.2877 15.626 15.2877 15.7633 15.1504L16.9424 13.9714C17.2084 13.7054 17.3545 13.3516 17.3536 12.9753C17.3527 12.5991 17.2049 12.2459 16.9376 11.9812Z"/>
<path d="M14.4019 15.6745C14.3094 15.6745 14.2187 15.7121 14.1533 15.7775C14.0879 15.8429 14.0503 15.9336 14.0503 16.0261C14.0503 16.1185 14.0879 16.2092 14.1533 16.2746C14.2191 16.34 14.3094 16.3776 14.4019 16.3776C14.4943 16.3776 14.585 16.34 14.6504 16.2746C14.7158 16.2092 14.7534 16.1185 14.7534 16.0261C14.7534 15.9336 14.7158 15.8429 14.6504 15.7775C14.585 15.7121 14.4943 15.6745 14.4019 15.6745Z"/>
<path d="M4.78102 9.98403H8.64825V11.32C8.64825 11.5141 8.80568 11.6716 8.99982 11.6716C9.19395 11.6716 9.35138 11.5141 9.35138 11.32V9.98403H13.2186C13.8002 9.98403 14.2733 9.5109 14.2733 8.92933V7.24182C14.2733 6.97188 14.1713 6.72543 14.0039 6.53868C14.1713 6.35193 14.2733 6.10548 14.2733 5.83555V4.14803C14.2733 3.8782 14.1714 3.63182 14.0041 3.44511C14.1714 3.25839 14.2733 3.01201 14.2733 2.74218V1.0547C14.2733 0.473138 13.8002 0 13.2186 0H4.78102C4.19946 0 3.72632 0.473138 3.72632 1.0547V2.74222C3.72632 3.01205 3.82827 3.25842 3.99555 3.44514C3.82827 3.63186 3.72632 3.87824 3.72632 4.14806V5.83558C3.72632 6.10552 3.82834 6.35196 3.99576 6.53872C3.82838 6.72547 3.72632 6.97192 3.72632 7.24185V8.92937C3.72632 9.5109 4.19946 9.98403 4.78102 9.98403ZM13.5702 8.92933C13.5702 9.12319 13.4125 9.2809 13.2186 9.2809H4.78102C4.58716 9.2809 4.42945 9.12319 4.42945 8.92933V7.24182C4.42945 7.04796 4.58716 6.89025 4.78102 6.89025H13.2186C13.4125 6.89025 13.5702 7.04796 13.5702 7.24182V8.92933ZM4.42945 5.83555V4.14803C4.42945 3.95618 4.58404 3.79994 4.77515 3.79678C4.77712 3.79678 4.77905 3.79692 4.78102 3.79692H13.2186C13.2206 3.79692 13.2225 3.79678 13.2245 3.79678C13.4156 3.79994 13.5702 3.95618 13.5702 4.14803V5.83555C13.5702 6.0294 13.4125 6.18712 13.2186 6.18712H4.78102C4.5872 6.18712 4.42945 6.0294 4.42945 5.83555ZM4.42945 1.0547C4.42945 0.860846 4.58716 0.703133 4.78102 0.703133H13.2186C13.4125 0.703133 13.5702 0.860846 13.5702 1.0547V2.74222C13.5702 2.93407 13.4156 3.09031 13.2245 3.09347C13.2225 3.09347 13.2206 3.09333 13.2186 3.09333H4.78102C4.77905 3.09333 4.77712 3.09347 4.77515 3.09347C4.58404 3.09031 4.42945 2.93407 4.42945 2.74222V1.0547Z"/>
<path d="M8.63377 7.73401H5.69239C5.49825 7.73401 5.34082 7.89144 5.34082 8.08558C5.34082 8.27971 5.49825 8.43714 5.69239 8.43714H8.63377C8.8279 8.43714 8.98533 8.27971 8.98533 8.08558C8.98533 7.89144 8.82794 7.73401 8.63377 7.73401Z"/>
<path d="M10.4661 7.73401C10.3736 7.73401 10.2829 7.77159 10.2175 7.83702C10.1521 7.90244 10.1145 7.99308 10.1145 8.08557C10.1145 8.17803 10.1521 8.26874 10.2175 8.33409C10.2829 8.39948 10.3736 8.43713 10.4661 8.43713C10.5585 8.43713 10.6492 8.39952 10.7146 8.33409C10.78 8.26874 10.8176 8.17803 10.8176 8.08557C10.8176 7.99308 10.78 7.90241 10.7146 7.83702C10.6492 7.77163 10.5585 7.73401 10.4661 7.73401Z"/>
<path d="M12.3074 7.73401C12.2149 7.73401 12.1242 7.77159 12.0588 7.83702C11.9934 7.90244 11.9558 7.99308 11.9558 8.08557C11.9558 8.17803 11.9934 8.26874 12.0588 8.33409C12.1242 8.39948 12.2149 8.43713 12.3074 8.43713C12.4002 8.43713 12.4905 8.39952 12.5559 8.33409C12.6213 8.26874 12.6589 8.17803 12.6589 8.08557C12.6589 7.99308 12.6213 7.90241 12.5559 7.83702C12.4905 7.77163 12.3998 7.73401 12.3074 7.73401Z"/>
<path d="M5.69239 2.25007H8.63377C8.8279 2.25007 8.98533 2.09264 8.98533 1.8985C8.98533 1.70437 8.8279 1.54694 8.63377 1.54694H5.69239C5.49825 1.54694 5.34082 1.70437 5.34082 1.8985C5.34082 2.09264 5.49825 2.25007 5.69239 2.25007Z"/>
<path d="M10.4661 2.24988C10.5585 2.24988 10.6488 2.21258 10.7146 2.14683C10.78 2.08148 10.8176 1.99109 10.8176 1.89832C10.8176 1.80585 10.78 1.71515 10.7146 1.64976C10.6492 1.58437 10.5585 1.54675 10.4661 1.54675C10.3732 1.54675 10.2829 1.58433 10.2175 1.64976C10.1521 1.71519 10.1145 1.80585 10.1145 1.89832C10.1145 1.99113 10.1521 2.08148 10.2175 2.14683C10.2829 2.21261 10.3736 2.24988 10.4661 2.24988Z"/>
<path d="M12.3074 2.24988C12.4002 2.24988 12.4905 2.21258 12.5559 2.14683C12.6213 2.08148 12.6589 1.99109 12.6589 1.89832C12.6589 1.80585 12.6213 1.71515 12.5559 1.64976C12.4905 1.58437 12.4002 1.54675 12.3074 1.54675C12.2149 1.54675 12.1242 1.58433 12.0588 1.64976C11.9934 1.7155 11.9558 1.80585 11.9558 1.89832C11.9558 1.99078 11.9934 2.08148 12.0588 2.14683C12.1242 2.21261 12.2149 2.24988 12.3074 2.24988Z"/>
<path d="M8.63377 4.6402H5.69239C5.49825 4.6402 5.34082 4.79763 5.34082 4.99177C5.34082 5.1859 5.49825 5.34333 5.69239 5.34333H8.63377C8.8279 5.34333 8.98533 5.1859 8.98533 4.99177C8.98533 4.79763 8.82794 4.6402 8.63377 4.6402Z"/>
<path d="M10.4661 4.6402C10.3736 4.6402 10.2829 4.67778 10.2175 4.74321C10.1521 4.80863 10.1145 4.89926 10.1145 4.99176C10.1145 5.08422 10.1521 5.17492 10.2175 5.24028C10.2829 5.30567 10.3733 5.34332 10.4661 5.34332C10.5585 5.34332 10.6492 5.30571 10.7146 5.24028C10.78 5.17492 10.8176 5.08422 10.8176 4.99176C10.8176 4.89926 10.78 4.8086 10.7146 4.74321C10.6492 4.67782 10.5585 4.6402 10.4661 4.6402Z"/>
<path d="M12.3074 4.6402C12.2149 4.6402 12.1242 4.67778 12.0588 4.74321C11.9934 4.80863 11.9558 4.89926 11.9558 4.99176C11.9558 5.08422 11.9934 5.17492 12.0588 5.24028C12.1242 5.30567 12.2149 5.34332 12.3074 5.34332C12.4002 5.34332 12.4905 5.30571 12.5559 5.24028C12.6213 5.17492 12.6589 5.08422 12.6589 4.99176C12.6589 4.89926 12.6213 4.8086 12.5559 4.74321C12.4905 4.67782 12.4002 4.6402 12.3074 4.6402Z"/>
</svg>
