<svg width="22" height="22" viewBox="0 0 22 22" xmlns="http://www.w3.org/2000/svg">
<path d="M8.06212 0H1.87803C0.842486 0 0 0.84249 0 1.87804V8.06216C0 9.09771 0.842486 9.9402 1.87803 9.9402H8.06212C9.09766 9.9402 9.94015 9.09771 9.94015 8.06216V1.87804C9.94015 0.84249 9.09766 0 8.06212 0Z"/>
<path d="M20.1217 0H13.9376C12.9021 0 12.0596 0.84249 12.0596 1.87804V8.06216C12.0596 9.09771 12.9021 9.9402 13.9376 9.9402H20.1217C21.1572 9.9402 21.9997 9.09771 21.9997 8.06216V1.87804C21.9997 0.84249 21.1572 0 20.1217 0Z"/>
<path d="M8.06212 12.0598H1.87803C0.842486 12.0598 0 12.9023 0 13.9379V20.122C0 21.1575 0.842486 22 1.87803 22H8.06212C9.09766 22 9.94015 21.1575 9.94015 20.122V13.9379C9.94015 12.9023 9.09766 12.0598 8.06212 12.0598Z"/>
<path d="M20.1217 12.0598H13.9376C12.9021 12.0598 12.0596 12.9023 12.0596 13.9379V20.122C12.0596 21.1575 12.9021 22 13.9376 22H20.1217C21.1572 22 21.9997 21.1575 21.9997 20.122V13.9379C21.9997 12.9023 21.1572 12.0598 20.1217 12.0598Z"/>
</svg>
