<svg width="18" height="18" viewBox="0 0 18 18" fill="none" xmlns="http://www.w3.org/2000/svg">
<path d="M7.46208 13.7195L5.34106 15.8406C4.46172 16.7199 3.03771 16.7199 2.15912 15.8407C1.28035 14.962 1.28035 13.5378 2.15894 12.6592L6.40173 8.41642C7.28032 7.53779 8.70447 7.53779 9.58307 8.41642C9.87596 8.70931 10.3509 8.70931 10.6437 8.41642C10.9366 8.12353 10.9366 7.64864 10.6437 7.35575C9.17933 5.89134 6.80546 5.89134 5.34106 7.35575L1.09831 11.5985C-0.366102 13.0629 -0.366102 15.4368 1.09831 16.9012C2.56254 18.3664 4.93658 18.3664 6.40176 16.9012L8.52279 14.7802C8.81567 14.4873 8.81567 14.0124 8.52279 13.7195C8.2299 13.4266 7.75497 13.4266 7.46208 13.7195Z" fill="#111111"/>
<path d="M16.9013 1.09831C15.4369 -0.366102 13.0622 -0.366102 11.5978 1.09831L9.05306 3.64307C8.76017 3.93596 8.76017 4.41085 9.05306 4.70374C9.34595 4.99663 9.82084 4.99663 10.1137 4.70374L12.6585 2.15898C13.5371 1.28035 14.962 1.28035 15.8406 2.15898C16.7192 3.03757 16.7192 4.46172 15.8406 5.34032L11.1741 10.0069C10.2955 10.8855 8.87133 10.8855 7.99274 10.0069C7.69985 9.71399 7.22496 9.71399 6.93207 10.0069C6.63918 10.2998 6.63918 10.7747 6.93207 11.0676C8.39648 12.532 10.7703 12.532 12.2348 11.0676L16.9013 6.40102C18.3657 4.93662 18.3657 2.56271 16.9013 1.09831Z" fill="#111111"/>
</svg>