<svg width="22" height="22" viewBox="0 0 22 22" xmlns="http://www.w3.org/2000/svg">
<g clip-path="url(#clip0)">
<path d="M4.58333 0H0.916667C0.410667 0 0 0.410667 0 0.916667V4.58333C0 5.08933 0.410667 5.5 0.916667 5.5H4.58333C5.08933 5.5 5.5 5.08933 5.5 4.58333V0.916667C5.5 0.410667 5.08933 0 4.58333 0Z"/>
<path d="M21.084 0H8.25065C7.74465 0 7.33398 0.410667 7.33398 0.916667V4.58333C7.33398 5.08933 7.74465 5.5 8.25065 5.5H21.084C21.59 5.5 22.0006 5.08933 22.0006 4.58333V0.916667C22.0006 0.410667 21.59 0 21.084 0Z"/>
<path d="M4.58333 8.25H0.916667C0.410667 8.25 0 8.66067 0 9.16667V12.8333C0 13.3393 0.410667 13.75 0.916667 13.75H4.58333C5.08933 13.75 5.5 13.3393 5.5 12.8333V9.16667C5.5 8.66067 5.08933 8.25 4.58333 8.25Z"/>
<path d="M21.084 8.25H8.25065C7.74465 8.25 7.33398 8.66067 7.33398 9.16667V12.8333C7.33398 13.3393 7.74465 13.75 8.25065 13.75H21.084C21.59 13.75 22.0006 13.3393 22.0006 12.8333V9.16667C22.0006 8.66067 21.59 8.25 21.084 8.25Z"/>
<path d="M4.58333 16.5H0.916667C0.410667 16.5 0 16.9107 0 17.4167V21.0833C0 21.5893 0.410667 22 0.916667 22H4.58333C5.08933 22 5.5 21.5893 5.5 21.0833V17.4167C5.5 16.9107 5.08933 16.5 4.58333 16.5Z"/>
<path d="M21.084 16.5H8.25065C7.74465 16.5 7.33398 16.9107 7.33398 17.4167V21.0833C7.33398 21.5893 7.74465 22 8.25065 22H21.084C21.59 22 22.0006 21.5893 22.0006 21.0833V17.4167C22.0006 16.9107 21.59 16.5 21.084 16.5Z"/>
</g>
<defs>
<clipPath id="clip0">
<rect width="22" height="22"/>
</clipPath>
</defs>
</svg>