<svg width="15" height="15" viewBox="0 0 15 15" fill="none" xmlns="http://www.w3.org/2000/svg">
<path fill-rule="evenodd" clip-rule="evenodd" d="M14.1919 0.808076C14.436 1.05215 14.436 1.44788 14.1919 1.69196L7.31695 8.56696C7.07287 8.81104 6.67714 8.81104 6.43306 8.56696C6.18898 8.32288 6.18898 7.92715 6.43306 7.68308L13.3081 0.808076C13.5521 0.563998 13.9479 0.563998 14.1919 0.808076Z" fill="white"/>
<path fill-rule="evenodd" clip-rule="evenodd" d="M14.1919 0.808076C14.3617 0.977849 14.4192 1.22987 14.3399 1.45649L9.96491 13.9565C9.88026 14.1984 9.65653 14.3641 9.40048 14.3745C9.14443 14.3849 8.90795 14.238 8.80387 14.0039L6.4015 8.59852L0.996167 6.19615C0.761991 6.09207 0.615077 5.85559 0.625523 5.59954C0.635969 5.34349 0.801659 5.11976 1.04353 5.03511L13.5435 0.660106C13.7702 0.58079 14.0222 0.638302 14.1919 0.808076ZM2.94443 5.69415L7.12884 7.55388C7.27024 7.61673 7.38329 7.72979 7.44614 7.87118L9.30588 12.0556L12.7313 2.26875L2.94443 5.69415Z" fill="white"/>
</svg>
