<svg width="77" height="31" viewBox="0 0 77 31" fill="none" xmlns="http://www.w3.org/2000/svg">
<path d="M9.84956 17.6025C12.5782 17.53 1.88496 17.6025 1.88496 17.6025C1.22124 17.6025 1.18437 18.0737 1 18.835C1 19.4875 2.40118 19.995 2.40118 19.995C2.40118 19.995 14.5693 19.995 11.767 19.995H22.6077C23.0501 19.995 23.4926 19.7775 23.7139 19.3425L28.6549 9.7725L36.3982 29.275C36.5457 29.71 37.062 30 37.5044 30C37.5044 30 37.5044 30 37.5782 30C38.0944 30 38.5369 29.6375 38.6844 29.13L45.469 6.2925L49.0826 17.82C49.2301 18.255 49.5988 18.545 50.0413 18.6175C50.4838 18.69 50.9263 18.4725 51.2212 18.11L54.0973 13.9775L56.531 18.0375C56.7522 18.4 57.1209 18.6175 57.5634 18.6175C57.5634 18.6175 67.0767 18.6175 64.2006 18.6175H74.8201C75.4838 18.6175 76 18.11 76 17.4575C76 16.805 75.4838 16.37 74.8201 16.37H65.528H58.3009L55.2773 11.295C55.056 10.9325 54.6873 10.715 54.2448 10.715C53.8024 10.715 53.4336 10.86 53.2124 11.2225L50.705 14.8475L46.649 1.87C46.5015 1.3625 45.9853 1.0725 45.469 1C44.9528 1 44.4366 1.3625 44.2891 1.87L37.4307 25.1425L29.9823 6.4375C29.8348 6.0025 29.3923 5.7125 28.9499 5.7125C28.4336 5.7125 28.0649 5.93 27.8437 6.365L22.0177 17.6025H10.292" stroke="#B7D4FF"/>
</svg>
