<svg width="37" height="37" viewBox="0 0 37 37" fill="none" xmlns="http://www.w3.org/2000/svg">
<g clip-path="url(#clip0)">
<path d="M27.7319 21.8305C25.1798 21.8305 23.1035 23.9067 23.1035 26.4589C23.1035 29.011 25.1798 31.0872 27.7319 31.0872C30.2845 31.0872 32.3603 29.011 32.3603 26.4589C32.3603 23.9067 30.284 21.8305 27.7319 21.8305ZM27.7319 28.7731C26.4557 28.7731 25.4177 27.7351 25.4177 26.4589C25.4177 25.1826 26.4557 24.1447 27.7319 24.1447C29.0082 24.1447 30.0461 25.1826 30.0461 26.4589C30.0461 27.7352 29.0082 28.7731 27.7319 28.7731Z" fill="white"/>
<path d="M11.9184 21.8305C9.36628 21.8305 7.29004 23.9067 7.29004 26.4589C7.29004 29.011 9.36628 31.0872 11.9184 31.0872C14.4706 31.0872 16.5468 29.011 16.5468 26.4589C16.5468 23.9067 14.4706 21.8305 11.9184 21.8305ZM11.9184 28.7731C10.6422 28.7731 9.60423 27.7351 9.60423 26.4589C9.60423 25.1826 10.6422 24.1447 11.9184 24.1447C13.1943 24.1447 14.2326 25.1826 14.2326 26.4589C14.2326 27.7352 13.1947 28.7731 11.9184 28.7731Z" fill="white"/>
<path d="M30.8488 8.58254C30.6521 8.19183 30.2521 7.94534 29.8147 7.94534H23.7207V10.2595H29.1012L32.2519 16.5263L34.3201 15.4865L30.8488 8.58254Z" fill="white"/>
<path d="M24.2602 25.3404H15.5049V27.6546H24.2602V25.3404Z" fill="white"/>
<path d="M8.44659 25.3404H4.43538C3.79625 25.3404 3.27832 25.8584 3.27832 26.4974C3.27832 27.1366 3.79632 27.6545 4.43538 27.6545H8.44666C9.08579 27.6545 9.60372 27.1365 9.60372 26.4974C9.60372 25.8583 9.08572 25.3404 8.44659 25.3404Z" fill="white"/>
<path d="M36.4753 18.2666L34.1993 15.3353C33.9807 15.053 33.6432 14.8879 33.2856 14.8879H24.8774V6.78823C24.8774 6.1491 24.3594 5.63116 23.7203 5.63116H4.43538C3.79625 5.63116 3.27832 6.14917 3.27832 6.78823C3.27832 7.42728 3.79632 7.94529 4.43538 7.94529H22.5632V16.0449C22.5632 16.6841 23.0812 17.202 23.7202 17.202H32.719L34.4041 19.3727V25.3402H31.2028C30.5636 25.3402 30.0457 25.8582 30.0457 26.4973C30.0457 27.1364 30.5637 27.6543 31.2028 27.6543H35.5611C36.2003 27.6543 36.7182 27.1363 36.7183 26.4973V18.9763C36.7183 18.7194 36.6327 18.4695 36.4753 18.2666Z" fill="white"/>
<path d="M8.36938 19.4778H3.04671C2.40758 19.4778 1.88965 19.9958 1.88965 20.6348C1.88965 21.274 2.40765 21.7919 3.04671 21.7919H8.3693C9.00843 21.7919 9.52637 21.2739 9.52637 20.6348C9.52644 19.9958 9.00843 19.4778 8.36938 19.4778Z" fill="white"/>
<path d="M11.031 14.9265H1.15706C0.518003 14.9265 0 15.4445 0 16.0836C0 16.7227 0.518003 17.2407 1.15706 17.2407H11.031C11.6701 17.2407 12.188 16.7227 12.188 16.0836C12.188 15.4445 11.6701 14.9265 11.031 14.9265Z" fill="white"/>
<path d="M12.9206 10.3752H3.04671C2.40758 10.3752 1.88965 10.8932 1.88965 11.5323C1.88965 12.1714 2.40765 12.6893 3.04671 12.6893H12.9206C13.5597 12.6893 14.0777 12.1713 14.0777 11.5323C14.0777 10.8932 13.5597 10.3752 12.9206 10.3752Z" fill="white"/>
</g>
<defs>
<clipPath id="clip0">
<rect width="36.7184" height="36.7184" fill="white"/>
</clipPath>
</defs>
</svg>
