<svg width="37" height="37" viewBox="0 0 37 37" fill="none" xmlns="http://www.w3.org/2000/svg">
<g clip-path="url(#clip0)">
<path d="M15.7969 11.6712V9.60872H3.42188C2.28544 9.60872 1.35938 10.5348 1.35938 11.6712V15.7962H16.2321C15.9454 14.536 15.7969 13.1789 15.7969 11.6712Z" fill="white"/>
<path d="M34.2748 19.9212C32.8682 22.0889 30.7232 23.9328 27.6501 25.6983C27.1777 25.9685 26.6456 26.1087 26.1094 26.1087C25.5731 26.1087 25.041 25.9685 24.5749 25.7024C21.5017 23.9328 19.3568 22.0869 17.9481 19.9212H1.35938V30.2337C1.35938 31.3722 2.28544 32.2962 3.42188 32.2962H32.2969C33.4354 32.2962 34.3594 31.3722 34.3594 30.2337V19.9212H34.2748ZM10.6406 26.1087H6.51562C5.94637 26.1087 5.48438 25.6467 5.48438 25.0775C5.48438 24.5082 5.94637 24.0462 6.51562 24.0462H10.6406C11.2099 24.0462 11.6719 24.5082 11.6719 25.0775C11.6719 25.6467 11.2099 26.1087 10.6406 26.1087Z" fill="white"/>
<path d="M33.7344 6.59957L26.5157 3.50582C26.2537 3.39444 25.9629 3.39444 25.701 3.50582L18.4823 6.59957C18.1048 6.76044 17.8594 7.13376 17.8594 7.54626V11.6713C17.8594 17.3452 19.9569 20.6617 25.5958 23.9101C25.7546 24.0009 25.932 24.0463 26.1094 24.0463C26.2867 24.0463 26.4641 24.0009 26.6229 23.9101C32.2618 20.6699 34.3594 17.3534 34.3594 11.6713V7.54626C34.3594 7.13376 34.1139 6.76044 33.7344 6.59957ZM30.0096 11.2856L25.8846 16.4418C25.6866 16.6852 25.3896 16.8275 25.0781 16.8275C25.0637 16.8275 25.0472 16.8275 25.0348 16.8275C24.7069 16.8131 24.4037 16.6439 24.2201 16.3696L22.1576 13.2759C21.8421 12.8015 21.9699 12.1621 22.4443 11.8466C22.9146 11.5331 23.556 11.6568 23.8736 12.1333L25.1544 14.0534L28.3967 9.99857C28.7535 9.55513 29.4032 9.48501 29.8466 9.83769C30.2921 10.1904 30.3622 10.8401 30.0096 11.2856Z" fill="white"/>
</g>
<defs>
<clipPath id="clip0">
<rect width="33" height="33" fill="white" transform="translate(1.35938 1.35925)"/>
</clipPath>
</defs>
</svg>
