<svg width="33" height="33" viewBox="0 0 33 33" fill="none" xmlns="http://www.w3.org/2000/svg">
<path d="M16.7257 15.5596C15.6559 15.3028 15.5332 15.2009 15.5332 14.5664C15.5332 13.7252 16.7691 13.3098 17.2732 13.9867C17.5933 14.4135 18.2004 14.5003 18.6271 14.1793C19.0539 13.8592 19.1398 13.2531 18.8197 12.8254C18.4759 12.3671 17.9967 12.0434 17.4668 11.8536V10.6992C17.4668 10.1648 17.0344 9.73242 16.5 9.73242C15.9656 9.73242 15.5332 10.1648 15.5332 10.6992V11.8441C14.4103 12.2445 13.5996 13.3076 13.5996 14.5664C13.5996 16.7974 15.2736 17.1996 16.2743 17.4404C17.3441 17.6972 17.4668 17.7991 17.4668 18.4336C17.4668 18.967 17.0334 19.4004 16.5 19.4004C16.1931 19.4004 15.9108 19.2597 15.7268 19.0133C15.4067 18.5865 14.8024 18.5025 14.3729 18.8207C13.9461 19.1408 13.8602 19.7469 14.1803 20.1746C14.5241 20.6329 15.0033 20.9566 15.5332 21.1464V22.3008C15.5332 22.8352 15.9656 23.2676 16.5 23.2676C17.0344 23.2676 17.4668 22.8352 17.4668 22.3008V21.1559C18.5897 20.7555 19.4004 19.6924 19.4004 18.4336C19.4004 16.2026 17.7264 15.8004 16.7257 15.5596Z" fill="white"/>
<path d="M33 16.5645C33 8.32876 26.8565 1.32135 18.7095 0.264838C18.211 0.194971 17.7663 0.512209 17.6474 0.988969L16.6966 4.79293C16.553 5.36372 16.9519 5.93607 17.5483 5.99008C23.0507 6.47915 27.1992 11.0252 27.1992 16.5645C27.1992 20.1305 25.4072 23.4453 22.47 25.4054L21.2049 23.7191C20.7219 23.0723 19.6904 23.2713 19.4941 24.0647L17.5605 31.799C17.4075 32.4071 17.8687 33 18.498 33H26.2324C27.03 33 27.482 32.0872 27.0057 31.4535L25.9605 30.059C30.3885 26.983 33 22.0131 33 16.5645ZM15.4517 27.0099C9.94931 26.5208 5.80078 21.9748 5.80078 16.4355C5.80078 12.8695 7.59277 9.55466 10.53 7.59464L11.7951 9.28086C12.2739 9.92004 13.3081 9.735 13.5059 8.93533L15.4395 1.20096C15.5925 0.592904 15.1313 0 14.502 0H6.76758C5.97004 0 5.51803 0.912785 5.99433 1.54649L7.03951 2.941C2.61151 6.01696 0 10.9869 0 16.4355C0 24.6712 6.14348 31.6786 14.2905 32.7352C14.7717 32.7994 15.2327 32.4918 15.3526 32.011L16.3034 28.2071C16.447 27.6363 16.0481 27.0639 15.4517 27.0099Z" fill="white"/>
</svg>
