<svg width="38" height="38" viewBox="0 0 38 38" fill="none" xmlns="http://www.w3.org/2000/svg">
<path d="M10.7656 15.5352C9.16629 15.5352 7.86523 16.8362 7.86523 18.4355V26.2988C7.86523 27.8982 9.16629 29.1992 10.7656 29.1992C12.365 29.1992 13.666 27.8982 13.666 26.2988V18.4355C13.666 16.8362 12.365 15.5352 10.7656 15.5352Z" fill="white"/>
<path d="M5.93164 18.4355C5.93164 18.1567 5.96844 17.8872 6.01401 17.6212C4.84883 17.9978 3.99805 19.0801 3.99805 20.3691V24.3652C3.99805 25.6542 4.84883 26.7365 6.01401 27.1131C5.96844 26.8471 5.93164 26.5777 5.93164 26.2988V18.4355Z" fill="white"/>
<path d="M26.2344 15.5352C24.635 15.5352 23.334 16.8362 23.334 18.4355V26.2988C23.334 27.8982 24.635 29.1992 26.2344 29.1992C26.5251 29.1992 26.8004 29.1433 27.0653 29.0634C26.7054 30.2563 25.6095 31.1328 24.3008 31.1328H21.2223C20.8219 30.0099 19.7588 29.1992 18.5 29.1992C16.9007 29.1992 15.5996 30.5003 15.5996 32.0996C15.5996 33.6989 16.9007 35 18.5 35C19.7588 35 20.8219 34.1893 21.2223 33.0664H24.3008C26.9661 33.0664 29.1348 30.8978 29.1348 28.2324V26.2988V18.4355C29.1348 16.8362 27.8337 15.5352 26.2344 15.5352Z" fill="white"/>
<path d="M30.9863 17.6212C31.0319 17.8872 31.0687 18.1567 31.0687 18.4355V26.2988C31.0687 26.5777 31.0319 26.8471 30.9863 27.1131C32.1515 26.7365 33.0023 25.6542 33.0023 24.3652V20.3691C33.0023 19.0801 32.1515 17.9978 30.9863 17.6212Z" fill="white"/>
<path d="M18.5 2C10.5032 2 3.99805 8.50512 3.99805 16.502V16.5266C4.57406 16.0905 5.24051 15.7714 5.97592 15.6285C6.4278 9.10602 11.8648 3.93359 18.5 3.93359C25.1352 3.93359 30.5722 9.10602 31.0241 15.6285C31.7594 15.7714 32.4259 16.0905 33.002 16.5266V16.502C33.002 8.50512 26.4968 2 18.5 2Z" fill="white"/>
</svg>
